name C:\Users\Nicos\Desktop\Gil_twoSteps\Study2\ExperimentalData\IK_Splined\twoSteps_IK_BSplines_150_meshInts_study2_p02_s_01_lowIK_modROI.mot
datacolumns 38
datarows 5
range 0.32800000 0.33090667
endheader
                time	         pelvis_tilt	         pelvis_list	     pelvis_rotation	           pelvis_tx	           pelvis_ty	           pelvis_tz	       hip_flexion_r	     hip_adduction_r	      hip_rotation_r	        knee_angle_r	       ankle_angle_r	    subtalar_angle_r	         mtp_angle_r	       hip_flexion_l	     hip_adduction_l	      hip_rotation_l	        knee_angle_l	       ankle_angle_l	    subtalar_angle_l	         mtp_angle_l	    lumbar_extension	      lumbar_bending	     lumbar_rotation	          arm_flex_r	           arm_add_r	           arm_rot_r	        elbow_flex_r	           pro_sup_r	        wrist_flex_r	         wrist_dev_r	          arm_flex_l	           arm_add_l	           arm_rot_l	        elbow_flex_l	           pro_sup_l	        wrist_flex_l	         wrist_dev_l	
          0.32800000	        -23.90386320	         -6.37930528	          9.46822871	         -1.36070102	          0.83287053	          0.29608126	         79.49294409	         -5.90600392	         -3.03737614	        -86.15113191	          5.84470149	        -23.61807832	          0.17908449	         -5.33298735	         -4.90165449	         10.00201280	        -37.52652781	        -33.62435635	          6.84211837	          6.80826109	        -21.33284824	         17.03303884	         -0.33210009	        -65.85643494	          7.89173271	        -31.54042512	         65.10528210	         72.01320849	         -3.60717701	          8.11919888	         31.24089932	         -6.62827627	         22.79837199	        139.51296060	         49.05037125	         -6.15730307	          5.23698372	
          0.32845068	        -23.84086358	         -6.30405798	          9.42562834	         -1.35845285	          0.83317747	          0.29609315	         79.16907181	         -5.89863900	         -3.00012449	        -85.97931825	          5.78314554	        -23.56071267	          0.22626233	         -5.23416864	         -4.79657343	          9.82202438	        -37.85496638	        -33.63498388	          7.05335748	          6.92172223	        -21.45453538	         16.97548158	         -0.38831372	        -65.59342937	          7.71075325	        -31.45123321	         65.19235022	         72.00519659	         -3.59432434	          8.13678209	         30.75339952	         -6.72031767	         22.56655288	        139.27684743	         49.05221023	         -6.20823268	          5.26527629	
          0.32987465	        -23.64174769	         -6.07130380	          9.29281997	         -1.35134962	          0.83413957	          0.29613578	         78.13942009	         -5.87706160	         -2.88993036	        -85.42969125	          5.60851910	        -23.37228476	          0.38552831	         -4.91617175	         -4.47533978	          9.24689866	        -38.90101026	        -33.66162717	          7.64006198	          7.26462889	        -21.83692030	         16.79634640	         -0.56855509	        -64.75858832	          7.13760858	        -31.15836600	         65.46940508	         71.98215589	         -3.55380458	          8.19223709	         29.21538559	         -7.00326970	         21.81928008	        138.50897609	         49.05052585	         -6.36889488	          5.35590894	
          0.33090667	        -23.49741443	         -5.90460815	          9.19728188	         -1.34620164	          0.83483378	          0.29616869	         77.39065500	         -5.86209826	         -2.81305976	        -85.02865481	          5.48987829	        -23.23286212	          0.50502279	         -4.68340503	         -4.24682439	          8.82751378	        -39.66243859	        -33.67817213	          8.03309401	          7.50693644	        -22.11321598	         16.66760427	         -0.70023218	        -64.15200652	          6.72169736	        -30.94170431	         65.67097855	         71.96636358	         -3.52447375	          8.23238766	         28.10162933	         -7.20520403	         21.27179069	        137.94375525	         49.04631749	         -6.48523250	          5.42208865	
          0.33090667	        -23.49741443	         -5.90460815	          9.19728188	         -1.34620164	          0.83483378	          0.29616869	         77.39065500	         -5.86209826	         -2.81305976	        -85.02865481	          5.48987829	        -23.23286212	          0.50502279	         -4.68340503	         -4.24682439	          8.82751378	        -39.66243859	        -33.67817213	          8.03309401	          7.50693644	        -22.11321598	         16.66760427	         -0.70023218	        -64.15200652	          6.72169736	        -30.94170431	         65.67097855	         71.96636358	         -3.52447375	          8.23238766	         28.10162933	         -7.20520403	         21.27179069	        137.94375525	         49.04631749	         -6.48523250	          5.42208865	
